<?xml version="1.0" encoding="UTF-8"?>
<svg width="178px" height="178px" viewBox="0 0 178 178" version="1.1" xmlns="http://www.w3.org/2000/svg" xmlns:xlink="http://www.w3.org/1999/xlink">
    <!-- Generator: Sketch 51.2 (57519) - http://www.bohemiancoding.com/sketch -->
    <title>ic_dispatched</title>
    <desc>Created with Sketch.</desc>
    <defs></defs>
    <g id="Page-1" stroke="none" stroke-width="1" fill="none" fill-rule="evenodd">
        <g id="Desktop-Copy-6" transform="translate(-397.000000, -1047.000000)">
            <g id="Group-21" transform="translate(70.000000, 1007.000000)">
                <g id="Group-3" transform="translate(311.000000, 40.000000)">
                    <g id="ic_dispatched" transform="translate(16.000000, 0.000000)">
                        <circle id="Oval-2-Copy" fill="#EDECFF" fill-rule="nonzero" cx="89" cy="89" r="89"></circle>
                        <g id="undraw_on_the_way_ldaq" transform="translate(23.000000, 30.000000)">
                            <ellipse id="Oval" fill="#6C63FF" fill-rule="nonzero" opacity="0.1" cx="66.2462535" cy="127.988282" rx="65.7593377" ry="2.99169345"></ellipse>
                            <path d="M59.5469536,38.5438566 C59.5469536,38.5438566 63.7390066,46.4996786 64.0643898,47.6350803 C64.2381988,48.2819554 64.8104123,48.7408366 65.4777105,48.7684796 C65.4777105,48.7684796 69.6537938,49.7697157 70.6519016,49.9038813 C71.6500095,50.038047 80.3016083,50.7709518 80.3016083,50.7709518 C80.3016083,50.7709518 82.4974456,50.8390358 82.7629423,50.038047 C83.0064806,49.3051422 87.248439,45.4543881 89.7037843,48.8145365 C90.1629221,49.4449512 90.2949062,50.2571897 90.0591107,51.0012361 C89.6079659,52.4430161 88.6817219,54.7318418 87.6876064,53.3080841 C86.2902554,51.3056119 84.6653359,51.8683066 84.6653359,52.9356242 C84.6653359,54.0029419 82.4295743,53.6064524 81.6989593,53.7566378 C81.2997162,53.8387392 79.9263198,54.2051916 78.7385714,54.5255871 C77.3599114,54.8993749 75.947638,55.1348207 74.5225639,55.2284549 C72.1650331,55.3826452 68.6896216,55.5108035 67.4579565,55.0442274 C65.9707758,54.4775278 63.3776916,54.3473671 62.2677956,54.31733 C61.9001015,54.3084118 61.5451162,54.1805818 61.2557143,53.9528801 C59.7151301,52.7432003 58.4120973,51.2568218 57.4129991,49.5694685 C55.68228,46.5657602 52.1230274,40.3460816 52.3625733,38.5438566 C52.6021192,36.7416316 59.5469536,38.5438566 59.5469536,38.5438566 Z" id="Shape" fill="#EFB7B9" fill-rule="nonzero"></path>
                            <path d="M59.5469536,38.5438566 C59.5469536,38.5438566 63.7390066,46.4996786 64.0643898,47.6350803 C64.2381988,48.2819554 64.8104123,48.7408366 65.4777105,48.7684796 C65.4777105,48.7684796 69.6537938,49.7697157 70.6519016,49.9038813 C71.6500095,50.038047 80.3016083,50.7709518 80.3016083,50.7709518 C80.3016083,50.7709518 82.4974456,50.8390358 82.7629423,50.038047 C83.0064806,49.3051422 87.248439,45.4543881 89.7037843,48.8145365 C90.1629221,49.4449512 90.2949062,50.2571897 90.0591107,51.0012361 C89.6079659,52.4430161 88.6817219,54.7318418 87.6876064,53.3080841 C86.2902554,51.3056119 84.6653359,51.8683066 84.6653359,52.9356242 C84.6653359,54.0029419 82.4295743,53.6064524 81.6989593,53.7566378 C81.2997162,53.8387392 79.9263198,54.2051916 78.7385714,54.5255871 C77.3599114,54.8993749 75.947638,55.1348207 74.5225639,55.2284549 C72.1650331,55.3826452 68.6896216,55.5108035 67.4579565,55.0442274 C65.9707758,54.4775278 63.3776916,54.3473671 62.2677956,54.31733 C61.9001015,54.3084118 61.5451162,54.1805818 61.2557143,53.9528801 C59.7151301,52.7432003 58.4120973,51.2568218 57.4129991,49.5694685 C55.68228,46.5657602 52.1230274,40.3460816 52.3625733,38.5438566 C52.6021192,36.7416316 59.5469536,38.5438566 59.5469536,38.5438566 Z" id="Shape" fill="#000000" fill-rule="nonzero" opacity="0.05"></path>
                            <path d="M107.637786,98.6500618 C105.739385,100.720618 104.342034,101.535624 104.407909,99.3509271 C104.607531,92.7427689 93.0294797,62.8658838 93.0294797,62.8658838 L96.4529896,62.6055624 C103.924825,75.5195056 106.703557,88.7999011 107.637786,98.6500618 Z" id="Shape"></path>
                            <path d="M123.968827,113.067862 C123.953471,121.907802 117.003817,129.169172 108.199431,129.544567 C99.3950462,129.919962 91.8562196,123.276343 91.0931504,114.469592 C91.0691958,114.201261 91.0512299,113.93293 91.043245,113.668603 L91.043245,113.654586 C91.0352602,113.455674 91.0312677,113.255426 91.0312677,113.053844 C91.0312677,103.929882 98.4045915,96.5334487 107.500047,96.5334487 C116.595503,96.5334487 123.968827,103.929882 123.968827,113.053844 L123.968827,113.067862 Z" id="Shape" fill="#65617D" fill-rule="nonzero"></path>
                            <ellipse id="Oval" fill="#DCE0ED" fill-rule="nonzero" cx="107.500047" cy="113.057849" rx="8.98297067" ry="9.01112485"></ellipse>
                            <ellipse id="Oval" fill="#65617D" fill-rule="nonzero" cx="107.500047" cy="113.057849" rx="5.3897824" ry="5.40667491"></ellipse>
                            <path d="M64.2500378,81.6851174 L24.5932167,82.4861063 L24.5932167,76.6228677 C24.948543,71.9030408 29.7833775,70.2469963 34.175052,69.728356 C37.6085297,69.337361 41.0847078,69.5989085 44.4216272,70.4993078 C52.8356764,72.7340667 58.1955156,73.1666007 60.836509,73.2086527 C62.0315945,73.2266573 63.0492856,74.0852012 63.2718921,75.2631891 C63.3976537,75.9340173 63.5214191,76.6649197 63.6371996,77.3858096 C63.7250331,77.9505068 63.8088742,78.5071941 63.8847304,79.0258344 C64.1043141,80.5196786 64.2500378,81.6851174 64.2500378,81.6851174 Z" id="Shape" fill="#65617D" fill-rule="nonzero"></path>
                            <path d="M95.8880605,114.125167 L13.5062346,114.125167 C12.2060269,114.138412 11.0235732,113.371546 10.50193,112.176761 C9.88110691,110.688925 10.7494607,109.739753 11.6757048,109.183066 C13.5712739,108.056095 15.0081786,106.29264 15.7320151,104.20492 C16.61035,101.601706 17.4687228,97.5286774 17.8060833,91.1648208 C18.1534248,84.5826947 20.5289215,81.3286774 23.0960549,79.7507293 C26.4117692,77.7162176 30.046878,78.4791595 30.046878,78.4791595 L63.4495553,78.7474907 C64.0441303,79.0180052 64.5940915,79.3779172 65.0804636,79.8148084 C68.0568212,82.5942398 63.7170482,86.2227194 63.7170482,86.2227194 C54.4007096,96.1009147 61.4533396,106.113276 61.4533396,106.113276 L78.5449385,106.113276 C81.7383218,106.129816 84.8610712,105.170847 87.4979659,103.363881 C89.8075875,101.761904 90.6919111,100.213993 91.0472375,99.2768356 C91.3107379,98.5599506 91.5782308,97.845068 91.8976254,97.1522126 C96.3811258,87.3981706 90.9733775,71.530581 88.6398013,65.5972559 C88.0608988,64.1214339 87.6716367,63.2603708 87.6716367,63.2603708 L93.0314759,62.8598764 L96.4250426,62.6015575 L96.4589782,62.6015575 C103.928817,75.525513 106.705553,88.8059085 107.637786,98.6460569 C107.72562,99.5732015 107.797483,100.472311 107.855374,101.335377 C108.069087,104.65218 106.903573,107.909608 104.635997,110.333027 C102.368421,112.756446 99.2013976,114.129318 95.8880605,114.125167 Z" id="Shape" fill="#6C63FF" fill-rule="nonzero"></path>
                            <path d="M63.8867266,79.0258344 L24.5932167,79.0258344 L24.5932167,77.3858096 L63.6391958,77.3858096 C63.7270293,77.9404944 63.8108704,78.4971817 63.8867266,79.0258344 Z" id="Shape" fill="#000000" fill-rule="nonzero" opacity="0.1"></path>
                            <path d="M65.0824598,79.826827 L23.4134532,79.8268232 C23.3050734,79.8271571 23.1977604,79.8053547 23.0980511,79.7627441 C26.4137654,77.7282324 30.0488742,78.4911743 30.0488742,78.4911743 L63.4515516,78.7595056 C64.0461265,79.0300201 64.5960877,79.389932 65.0824598,79.826827 Z" id="Shape" fill="#000000" fill-rule="nonzero" opacity="0.1"></path>
                            <rect id="Rectangle-path" fill="#DCE0ED" fill-rule="nonzero" x="8.01664144" y="77.7762917" width="58.2296121" height="1.64002472" rx="0.818000073"></rect>
                            <path d="M107.637786,98.6500618 C105.739385,100.720618 104.342034,101.535624 104.407909,99.3509271 C104.607531,92.7427689 93.0294797,62.8658838 93.0294797,62.8658838 L96.4529896,62.6055624 C103.924825,75.5195056 106.703557,88.7999011 107.637786,98.6500618 Z" id="Shape" fill="#000000" fill-rule="nonzero" opacity="0.1"></path>
                            <path d="M123.869016,111.247614 C121.902744,111.720198 119.477342,112.200791 116.483018,112.649345 C115.36913,112.813548 114.1714,112.971075 112.88983,113.121928 C109.829631,113.486378 106.290341,113.804771 102.202091,114.049073 C101.044286,114.118492 99.8418985,114.181904 98.594929,114.239308 C96.2593567,114.346106 93.7594292,114.42754 91.0951466,114.483609 L91.0452412,113.682621 L91.0452412,113.668603 C94.7681835,112.160742 100.627077,108.137775 101.56929,97.6588381 C106.3378,95.8154332 111.689078,96.2959221 116.055429,98.9595421 C120.42178,101.623162 123.30891,106.168377 123.871012,111.263634 L123.869016,111.247614 Z" id="Shape" fill="#000000" fill-rule="nonzero" opacity="0.1"></path>
                            <path d="M87.9391296,114.125167 C87.9391296,114.125167 106.843292,112.066625 100.331637,83.1729543 C100.331637,83.1729543 109.67193,91.76356 115.482914,96.5374536 C121.293898,101.311347 131.652261,107.893473 131.652261,107.893473 C131.652261,107.893473 125.467985,113.69063 87.9391296,114.125167 Z" id="Shape" fill="#6C63FF" fill-rule="nonzero"></path>
                            <path d="M87.9391296,114.125167 C87.9391296,114.125167 106.843292,112.066625 100.331637,83.1729543 C100.331637,83.1729543 109.67193,91.76356 115.482914,96.5374536 C121.293898,101.311347 131.652261,107.893473 131.652261,107.893473 C131.652261,107.893473 125.467985,113.69063 87.9391296,114.125167 Z" id="Shape" fill="#FFFFFF" fill-rule="nonzero" opacity="0.1"></path>
                            <ellipse id="Oval" fill="#65617D" fill-rule="nonzero" cx="37.4348723" cy="113.057849" rx="16.4687796" ry="16.5203956"></ellipse>
                            <ellipse id="Oval" fill="#DCE0ED" fill-rule="nonzero" cx="37.4348723" cy="113.057849" rx="8.98297067" ry="9.01112485"></ellipse>
                            <ellipse id="Oval" fill="#65617D" fill-rule="nonzero" cx="37.4348723" cy="113.057849" rx="5.3897824" ry="5.40667491"></ellipse>
                            <path d="M55.8998675,108.095723 C55.8998675,97.4285538 47.4538789,88.7798764 37.0356291,88.7798764 C26.6173794,88.7798764 18.1713907,97.4285538 18.1713907,108.095723 C18.1713907,108.546947 18.186695,108.993498 18.2173037,109.435377 L55.8539546,109.435377 C55.8845632,108.993498 55.8998675,108.546947 55.8998675,108.095723 Z" id="Shape" fill="#000000" fill-rule="nonzero" opacity="0.1"></path>
                            <path d="M55.2011921,107.763313 C55.2011921,97.4906304 47.0686093,89.1623486 37.0356291,89.1623486 C27.002649,89.1623486 18.8700662,97.4906304 18.8700662,107.763313 C18.8700662,108.197849 18.886036,108.626378 18.913983,109.052905 L55.1572753,109.052905 C55.1852223,108.626378 55.2011921,108.197849 55.2011921,107.763313 Z" id="Shape" fill="#6C63FF" fill-rule="nonzero"></path>
                            <path d="M55.2011921,107.763313 C55.2011921,108.061681 55.2011921,108.364054 55.1792337,108.65241 C55.1792337,108.786576 55.1652602,108.918739 55.1572753,109.052905 L18.913983,109.052905 C18.913983,108.918739 18.8980132,108.786576 18.8920246,108.65241 C18.8780511,108.358047 18.8700662,108.051669 18.8700662,107.763313 C18.8700662,97.4906304 27.002649,89.1623486 37.0356291,89.1623486 C47.0686093,89.1623486 55.2011921,97.4906304 55.2011921,107.763313 Z" id="Shape" fill="#FFFFFF" fill-rule="nonzero" opacity="0.1"></path>
                            <path d="M55.1792337,108.662423 C55.1792337,108.796423 55.1652602,108.928423 55.1572753,109.062423 L18.913983,109.062423 C18.913983,108.928423 18.8980132,108.796423 18.8920246,108.662423 L55.1792337,108.662423 Z" id="Shape" fill="#000000" fill-rule="nonzero" opacity="0.1"></path>
                            <rect id="Rectangle-path" fill="#000000" fill-rule="nonzero" opacity="0.1" x="10.9231315" y="109.453399" width="48.8034816" height="4.27127318" rx="2.13400019"></rect>
                            <rect id="Rectangle-path" fill="#DCE0ED" fill-rule="nonzero" x="10.9231315" y="109.052905" width="48.8034816" height="4.27127318" rx="2.13400019"></rect>
                            <ellipse id="Oval" fill="#000000" fill-rule="nonzero" opacity="0.1" transform="translate(101.908356, 75.692191) rotate(-24.330000) translate(-101.908356, -75.692191) " cx="101.908356" cy="75.6921911" rx="2.39146641" ry="6.03945612"></ellipse>
                            <ellipse id="Oval" fill="#DCE0ED" fill-rule="nonzero" transform="translate(102.107817, 75.491307) rotate(-24.330000) translate(-102.107817, -75.491307) " cx="102.107817" cy="75.4913073" rx="2.39146641" ry="6.03945612"></ellipse>
                            <path d="M96.4230464,62.6055624 L96.4230464,65.7434418 L90.3345885,65.7434363 C89.7675836,65.7440138 89.2014653,65.6984752 88.6417975,65.6072682 C88.062895,64.1314462 87.6736329,63.2703832 87.6736329,63.2703832 L93.0334721,62.8698888 L96.4230464,62.6055624 Z" id="Shape" fill="#000000" fill-rule="nonzero" opacity="0.1"></path>
                            <path d="M96.4230464,65.334932 L90.3345885,65.334932 C84.9867266,65.334932 80.6529423,61.3299876 80.6529423,56.369864 L80.6529423,55.5388381 C80.6529423,50.5887268 84.9867266,46.5757726 90.3345885,46.5757726 L96.4230464,47.1304574 L96.4230464,65.334932 Z" id="Shape" fill="#6C63FF" fill-rule="nonzero"></path>
                            <path d="M86.3920624,51.8823239 C86.3920624,51.8823239 90.0351561,53.8347342 87.9391296,57.1388133 C87.9391296,57.1388133 85.3680038,61.3680346 81.325667,60.9675402 L79.854456,51.8823239 C79.854456,51.8823239 84.6952791,51.4317676 86.3920624,51.8823239 Z" id="Shape" fill="#6C63FF" fill-rule="nonzero"></path>
                            <path d="M84.9927152,51.7061063 C86.1657299,51.7507299 87.2552583,52.3266609 87.9550993,53.2720396 C88.6038694,54.173152 88.9911353,55.4867738 87.943122,57.1388133 C87.943122,57.1388133 85.3719962,61.3680346 81.3296594,60.9675402 L79.8584484,51.8823239 C79.8584484,51.8823239 82.8867077,51.5919654 84.9927152,51.7061063 Z" id="Shape" fill="#000000" fill-rule="nonzero" opacity="0.1"></path>
                            <path d="M96.2234248,47.1304574 L97.3971996,47.1304574 C99.4500164,47.1304574 101.114153,48.7998099 101.114153,50.8590606 L101.114153,61.6083313 C101.114153,62.5972183 100.722547,63.5456031 100.025483,64.2448519 C99.3284187,64.9441006 98.382997,65.3369345 97.3971996,65.3369345 L96.2234248,65.3369345 L96.2234248,47.1304574 Z" id="Shape" fill="#000000" fill-rule="nonzero" opacity="0.1"></path>
                            <path d="M96.4230464,47.1304574 L97.5968212,47.1304574 C99.649638,47.1304574 101.313775,48.7998099 101.313775,50.8590606 L101.313775,61.6083313 C101.313775,62.5972183 100.922168,63.5456031 100.225104,64.2448519 C99.5280403,64.9441006 98.5826186,65.3369345 97.5968212,65.3369345 L96.4230464,65.3369345 L96.4230464,47.1304574 Z" id="Shape" fill="#DCE0ED" fill-rule="nonzero"></path>
                            <path d="M53.1969915,70.5113226 C53.1969915,70.5113226 54.1372091,70.8557478 55.3928288,71.3363412 C57.3890445,72.107293 60.2037086,73.2326823 61.1818543,73.8494438 C62.16,74.4662052 65.8070861,75.4794561 68.5379092,76.1923362 C70.5624228,76.7183904 72.6468933,76.9762314 74.7381552,76.9592831 C76.8621287,76.9392583 79.4352507,76.9192336 80.1459035,76.9192336 C80.2702307,76.9182059 80.3944266,76.9275833 80.5171996,76.9472682 C81.2637843,77.0714215 81.2338411,77.574042 81.2158751,77.6941904 L81.2158751,77.7202225 C76.8242006,80.3895179 71.5002933,92.3382695 71.1689215,94.3407417 C70.9193945,95.8425958 68.7255535,100.005735 67.6436045,101.996193 C67.2802933,102.663016 67.0447398,103.085538 67.0447398,103.085538 L68.3762157,104.619431 L72.2349007,106.355575 L75.893964,107.957553 C75.893964,107.957553 79.7546452,108.1578 79.8205203,107.957553 C79.8863955,107.757305 79.8863955,105.688752 79.8863955,105.688752 C79.4165467,105.384486 78.9707395,105.044396 78.5529234,104.671496 C77.6675763,103.898108 76.8451851,103.05506 76.0935856,102.150383 C73.9656197,99.6132509 78.2235478,94.7412361 78.2235478,94.7412361 L86.4080322,84.0620519 C86.4080322,84.0620519 87.072772,82.8605686 90.2667171,78.0546354 C93.4606623,73.2487021 90.2667171,70.6454883 90.2667171,70.6454883 L84.6453737,68.3045983 C74.8958562,64.6440791 63.1361495,61.7104574 63.1361495,61.7104574 L62.9684674,61.6884302 L60.4751939,61.3760445 L53.1969915,70.5113226 Z" id="Shape" fill="#EFB7B9" fill-rule="nonzero"></path>
                            <path d="M78.3153737,106.355575 C78.3153737,106.355575 79.0140492,107.182596 78.4910407,107.256687 C77.9680322,107.330779 76.5946358,107.03241 76.5946358,107.03241 L67.8851466,102.426724 C67.8851466,102.426724 66.9369442,101.749889 66.713368,103.077528 C66.4897919,104.405167 66.3380795,104.279011 66.3380795,104.279011 C66.3380795,104.279011 65.1902554,106.756069 66.3380795,107.268702 C67.4859035,107.781335 74.3808325,109.809839 74.3808325,109.809839 C74.3808325,109.809839 84.3878619,112.088653 85.3360643,109.459407 C86.2842668,106.830161 83.639281,107.282719 83.639281,107.282719 C83.639281,107.282719 80.3455251,106.481731 79.2216556,104.879753 C79.2136708,104.879753 77.5927436,105.330309 78.3153737,106.355575 Z" id="Shape" fill="#444053" fill-rule="nonzero"></path>
                            <path d="M90.2587323,70.6454883 L84.6373888,68.3045983 C74.8878713,64.6440791 63.1281646,61.7104574 63.1281646,61.7104574 L62.9604825,61.6884302 L60.4672091,61.3760445 L53.1969915,70.5113226 C53.1969915,70.5113226 54.1372091,70.8557478 55.3928288,71.3363412 C57.3890445,72.107293 60.2037086,73.2326823 61.1818543,73.8494438 C62.16,74.4662052 65.8070861,75.4794561 68.5379092,76.1923362 C70.5624228,76.7183904 72.6468933,76.9762314 74.7381552,76.9592831 C76.8621287,76.9392583 79.4352507,76.9192336 80.1459035,76.9192336 C80.2702307,76.9182059 80.3944266,76.9275833 80.5171996,76.9472682 C81.2637843,77.0714215 81.2338411,77.574042 81.2158751,77.6941904 L81.2158751,77.7202225 C76.8242006,80.3895179 71.5002933,92.3382695 71.1689215,94.3407417 C70.9193945,95.8425958 68.7255535,100.005735 67.6436045,101.996193 L67.4978808,102.264524 C67.2084295,102.216465 66.8471145,102.320593 66.7193567,103.077528 C66.4937843,104.403164 66.3440681,104.279011 66.3440681,104.279011 C66.3440681,104.279011 65.1962441,106.756069 66.3440681,107.268702 C67.4918921,107.781335 74.3808325,109.809839 74.3808325,109.809839 C74.3808325,109.809839 84.3878619,112.088653 85.3360643,109.459407 C86.2842668,106.830161 83.639281,107.282719 83.639281,107.282719 C83.639281,107.282719 80.3455251,106.481731 79.2216556,104.879753 C79.1220973,104.908892 79.0247074,104.945026 78.9302081,104.987886 C78.8124314,104.891768 78.6866698,104.787639 78.5529234,104.671496 C77.6675763,103.898108 76.8451851,103.05506 76.0935856,102.150383 C73.9656197,99.6132509 78.2235478,94.7412361 78.2235478,94.7412361 L86.4080322,84.0620519 C86.4080322,84.0620519 87.072772,82.8605686 90.2667171,78.0546354 C93.4606623,73.2487021 90.2587323,70.6454883 90.2587323,70.6454883 Z" id="Shape" fill="#000000" fill-rule="nonzero" opacity="0.05"></path>
                            <path d="M46.4936991,25.8521879 L46.7971239,26.2366625 L46.9668023,26.4509271 L48.0247966,27.786576 C48.0247966,27.786576 50.5500095,28.5995797 52.7638127,29.1262299 C55.0694418,29.6729048 57.0357143,29.911199 55.4726774,28.6035847 C54.5025166,27.7925834 54.4386377,26.4349073 54.7919678,24.97911 C55.0895289,23.8588395 55.5155713,22.7769557 56.061561,21.7551298 C56.1400788,21.6029419 56.2179313,21.454759 56.2951183,21.310581 C56.7909418,20.3906245 57.3401807,19.5006631 57.94,18.6452905 C56.5207252,17.6593532 55.0486363,16.7522071 53.5303595,15.9279357 C51.7018259,14.9787639 50.2006717,14.5642522 51.1528666,16.4425711 C51.7637086,17.6440544 51.564087,18.9937206 50.9931693,20.2853152 C50.9492526,20.3874413 50.9013434,20.4855624 50.851438,20.5916934 C50.3389155,21.5925742 49.7060565,22.5266804 48.9670104,23.3731273 C48.2098093,24.2643344 47.3827328,25.0933334 46.4936991,25.8521879 Z" id="Shape" fill="#EFB7B9" fill-rule="nonzero"></path>
                            <polygon id="Shape" fill="#444053" fill-rule="nonzero" points="59.1377294 56.3558467 60.4911637 57.595377 61.798685 62.6416069 59.6168212 62.6416069 57.2073888 59.4977256"></polygon>
                            <polygon id="Shape" fill="#000000" fill-rule="nonzero" opacity="0.1" points="57.2073888 59.4977256 58.6646263 61.3980717 59.6168212 62.6416069 61.798685 62.6416069 61.5751088 61.7785414 60.6229139 58.1020025 60.4911637 57.595377 59.1377294 56.3558467 57.2892337 59.36356"></polygon>
                            <polygon id="Shape" fill="#000000" fill-rule="nonzero" opacity="0.1" points="57.2073888 59.4977256 58.6646263 61.3980717 59.6168212 62.6416069 61.798685 62.6416069 61.5751088 61.7785414 60.6229139 58.1020025 60.4911637 57.595377 59.1377294 56.3558467 57.2892337 59.36356"></polygon>
                            <path d="M49.9551372,72.7761187 C49.9551372,72.7761187 50.8953548,73.1205439 52.1509745,73.6011372 C54.1471902,74.372089 56.9618543,75.4974784 57.94,76.1142398 C58.9181457,76.7310012 62.5652318,77.7442522 65.2960549,78.4571323 C67.3204793,78.9838617 69.4049512,79.2423761 71.4963009,79.2260816 C73.6202744,79.2060569 76.1933964,79.1860321 76.9040492,79.1860321 C77.0283763,79.1850045 77.1525723,79.1943818 77.2753453,79.2140667 C78.02193,79.33822 77.9919868,79.8408405 77.9740208,79.9609889 L77.9740208,79.987021 C73.5823463,82.6563164 68.258439,94.605068 67.9270672,96.6075402 C67.6775402,98.1093943 65.4836991,102.272534 64.4017502,104.262991 C64.038439,104.929815 63.8028855,105.352336 63.8028855,105.352336 L65.1343614,106.88623 L68.9910501,108.620371 L72.6501135,110.222349 C72.6501135,110.222349 76.5107947,110.422596 76.5766698,110.222349 C76.6425449,110.022101 76.6425449,107.953548 76.6425449,107.953548 C76.1726962,107.649282 75.726889,107.309192 75.3090728,106.936292 C74.4237258,106.162904 73.6013346,105.319856 72.8497351,104.415179 C70.7217692,101.878047 74.9796973,97.0060321 74.9796973,97.0060321 L83.1641816,86.326848 C83.1641816,86.326848 83.8289215,85.1253646 87.0228666,80.3194314 C90.2168117,75.5134981 87.0228666,72.9102843 87.0228666,72.9102843 L81.9005771,69.9726576 C73.9157143,65.1006428 62.669035,62.2971817 62.669035,62.2971817 L62.5013529,62.2751545 L60.0080795,61.9627689 L49.9551372,72.7761187 Z" id="Shape" fill="#EFB7B9" fill-rule="nonzero"></path>
                            <path d="M63.8008893,105.350334 L65.1323652,106.884227 L68.9910501,108.620371 L72.6501135,110.222349 C72.6501135,110.222349 76.5107947,110.422596 76.5766698,110.222349 C76.6425449,110.022101 76.6425449,107.953548 76.6425449,107.953548 C76.1726962,107.649282 75.726889,107.309192 75.3090728,106.936292 C74.8958562,107.158566 74.4267455,107.57508 74.8798865,108.219876 C74.8798865,108.219876 75.578562,109.044895 75.0555535,109.120989 C74.5325449,109.197083 73.1591485,108.896712 73.1591485,108.896712 L64.4496594,104.291026 L64.399754,104.256984 C64.0324503,104.927812 63.8008893,105.350334 63.8008893,105.350334 Z" id="Shape" fill="#000000" fill-rule="nonzero" opacity="0.1"></path>
                            <path d="M75.0735194,108.620371 C75.0735194,108.620371 75.7721949,109.445389 75.2471902,109.521483 C74.7221854,109.597577 73.3507852,109.295204 73.3507852,109.295204 L64.6432923,104.689518 C64.6432923,104.689518 63.6950899,104.014685 63.4695175,105.340321 C63.2439451,106.665958 63.0962252,106.541805 63.0962252,106.541805 C63.0962252,106.541805 61.9484011,109.020865 63.0962252,109.533498 C64.2440492,110.046131 71.1309934,112.066625 71.1309934,112.066625 C71.1309934,112.066625 81.1360265,114.343436 82.0842289,111.716193 C83.0324314,109.088949 80.3874456,109.537503 80.3874456,109.537503 C80.3874456,109.537503 77.0936897,108.736514 75.9718165,107.134536 C75.9778051,107.142546 74.3488931,107.593103 75.0735194,108.620371 Z" id="Shape" fill="#444053" fill-rule="nonzero"></path>
                            <path d="M50.4861306,19.7766873 C51.6399432,20.5776761 53.4006055,21.845241 54.9037559,21.845241 C55.2915059,21.8451451 55.6786434,21.8143449 56.061561,21.7531273 C56.6175104,20.675449 57.2450724,19.6364922 57.94,18.643288 C57.94,18.643288 49.1566509,12.5017058 51.1528666,16.4405686 C51.8116178,17.7501854 51.1628477,18.392979 50.4861306,19.7766873 Z" id="Shape" fill="#000000" fill-rule="nonzero" opacity="0.1"></path>
                            <path d="M47.7173794,14.2358467 C47.7153851,16.6787274 48.9488498,18.9558379 50.9931693,20.2833127 C51.2190159,20.4310854 51.4536784,20.5648342 51.6958373,20.6838072 C54.5699571,22.1220503 58.0464956,21.4725036 60.2117173,19.0927239 C62.3769389,16.7129443 62.705042,13.1808368 61.015415,10.4407261 C59.325788,7.70061542 56.0287394,6.41790924 52.9392008,7.29870084 C49.8496623,8.17949245 47.7178962,11.0098907 47.7173794,14.2318418 L47.7173794,14.2358467 Z" id="Shape" fill="#EFB7B9" fill-rule="nonzero"></path>
                            <path d="M49.9551372,72.7761187 C49.9551372,72.7761187 50.8953548,73.1205439 52.1509745,73.6011372 C52.9394797,72.9042769 53.747947,72.2314462 54.0853075,72.1092954 C54.8179186,71.8409642 57.2133775,70.4392336 57.1475024,70.0387392 C57.0816272,69.6382447 58.1456102,68.1043511 59.0758467,67.8360198 C60.0060833,67.5676885 59.4750899,66.1679604 59.4750899,66.1679604 C59.4750899,66.1679604 61.271684,65.5011372 61.7188363,64.5659827 C62.1659886,63.6308282 63.5353926,62.4293449 63.0682781,62.4974289 C62.8657482,62.464431 62.6725117,62.3886688 62.5013529,62.2751545 L60.0080795,61.9627689 L49.9551372,72.7761187 Z" id="Shape" fill="#000000" fill-rule="nonzero" opacity="0.1"></path>
                            <path d="M44.4974834,70.373152 C44.4974834,70.373152 47.5596783,72.9102843 47.7014096,74.0436836 C47.843141,75.1770828 49.8872658,75.1130037 49.8872658,75.1130037 C49.8872658,75.1130037 52.9494607,72.175377 53.6800757,71.9090482 C54.4106906,71.6427194 56.8081457,70.2389864 56.7422706,69.838492 C56.6763955,69.4379975 57.7403784,67.9041038 58.6706149,67.6357726 C59.6008515,67.3674413 59.0698581,65.9677132 59.0698581,65.9677132 C59.0698581,65.9677132 60.8664522,65.30089 61.3136045,64.3657355 C61.7607569,63.430581 63.1301608,62.2290977 62.6630464,62.2971817 C62.5312961,62.315204 62.1100946,62.0969345 61.5751088,61.7785414 C60.9183538,61.378047 60.0859319,60.835377 59.4072185,60.3768109 C58.6885809,59.8882077 58.1396216,59.4997281 58.1396216,59.4997281 C58.1396216,59.4997281 57.8262157,59.4436588 57.2892337,59.3655624 C54.3927247,58.9450433 44.9586093,57.8717182 42.7687606,61.3680346 C42.4768544,61.8300813 42.2580065,62.3346712 42.1199905,62.8638813 C41.1398486,66.5884796 44.4974834,70.373152 44.4974834,70.373152 Z" id="Shape" fill="#444053" fill-rule="nonzero"></path>
                            <path d="M47.6994134,62.2791595 C47.6994134,62.2791595 44.5733396,64.0493449 43.4075497,64.0493449 C42.2417597,64.0493449 47.6994134,62.2791595 47.6994134,62.2791595 Z" id="Shape" fill="#000000" fill-rule="nonzero" opacity="0.1"></path>
                            <path d="M49.7874551,63.6308282 C49.7874551,63.6308282 45.13228,65.2007664 45.13228,66.4342892 C45.13228,67.6678121 44.697105,63.1302101 49.7874551,63.6308282 Z" id="Shape" fill="#000000" fill-rule="nonzero" opacity="0.1"></path>
                            <path d="M60.9324522,56.5600989 L60.8664522,56.6500989 C60.8965466,56.6269694 60.919438,56.5957538 60.9324522,56.5600989 Z" id="Shape" fill="#000000" fill-rule="nonzero" opacity="0.1"></path>
                            <path d="M46.4936991,25.8521879 L46.7971239,26.2366625 L46.9668023,26.4509271 L48.0247966,27.786576 C48.0247966,27.786576 50.5500095,28.5995797 52.7638127,29.1262299 C55.0694418,29.6729048 57.0357143,29.911199 55.4726774,28.6035847 C54.5025166,27.7925834 54.4386377,26.4349073 54.7919678,24.97911 L54.7221003,24.8889988 C54.7221003,24.8889988 54.7919678,26.238665 53.9954778,26.2646972 C52.9215137,26.2987392 52.9075402,25.9362917 51.9174172,25.517775 C50.6418354,24.9771075 49.3343141,24.0739926 48.9670104,23.3711248 C48.2098903,24.2630241 47.3828117,25.0926948 46.4936991,25.8521879 Z" id="Shape" fill="#000000" fill-rule="nonzero" opacity="0.1"></path>
                            <path d="M42.1199905,62.8578739 C42.6645891,63.0914036 43.2778893,63.1057445 43.8327436,62.8979234 C45.8948344,62.2290977 49.1566509,60.61911 50.6857521,61.3239802 C51.9114286,61.8886774 56.84807,61.8726576 58.6706149,61.3980717 C59.1237559,61.2799258 59.383264,61.1337454 59.3433396,60.9615328 C59.3175761,60.763173 59.3415915,60.5614994 59.4132072,60.3748084 C59.6248061,59.6959703 60.1997162,58.7528059 60.6289026,58.1020025 L60.4971523,57.595377 L59.1437181,56.3558467 L57.2952223,59.359555 C54.3987133,58.9390358 44.9645979,57.8657108 42.7747493,61.3620272 C42.4807478,61.8237044 42.259872,62.3283121 42.1199905,62.8578739 Z" id="Shape" fill="#000000" fill-rule="nonzero" opacity="0.1"></path>
                            <path d="M40.7725449,61.2959456 C40.7725449,61.2959456 41.5710312,63.1642522 43.633122,62.4974289 C45.6952129,61.8306057 48.9570293,60.2186156 50.4861306,60.9234858 C52.0152318,61.628356 59.337351,61.4281088 59.1377294,60.5610383 C58.9381079,59.6939679 60.9343236,56.9565884 60.9343236,56.9565884 C60.9343236,56.9565884 59.8443898,56.7563412 59.1696689,53.1859333 C59.0698581,52.6652905 58.9800284,52.0725587 58.9041722,51.3997281 C58.7392789,50.0218001 58.7005236,48.6316194 58.7883917,47.2466007 C59.0578808,43.3818294 60.4073226,41.8038813 60.4073226,41.8038813 C60.4073226,41.8038813 62.2697919,39.669246 60.6728193,36.7316193 C59.8364049,35.1917182 56.4608042,30.9244499 56.4148912,29.0221014 C56.3729707,27.2959703 54.7280889,25.2894932 54.7280889,25.2894932 C54.7280889,25.2894932 54.7979565,26.6391595 54.0014664,26.6651916 C52.9275024,26.6992336 52.9135289,26.3367862 51.9234059,25.9182695 C50.4681646,25.301508 48.9729991,24.2141656 48.8751845,23.4872682 C48.8751845,23.4872682 42.7747493,23.18089 41.4432734,29.3885538 C40.1117975,35.5962176 40.578912,39.0004203 40.7785336,39.7353276 C40.9781552,40.4702349 42.706878,49.9479357 41.309527,53.9528801 C39.912176,57.9578245 40.7725449,61.2959456 40.7725449,61.2959456 Z" id="Shape" fill="#A36468" fill-rule="nonzero"></path>
                            <path d="M50.7196878,50.3904821 C51.8199099,52.2524718 53.2919832,53.866192 55.043491,55.1303337 C56.2115073,55.1400542 57.3779576,55.2182841 58.5368685,55.364623 C58.4370577,54.8439802 58.3372469,54.2512485 58.2713718,53.5784178 C58.1064785,52.2004898 58.0677232,50.8103091 58.1555913,49.4252905 C57.7678768,49.2302301 57.4827336,48.8770622 57.3730747,48.4560939 C57.0397067,47.3206922 54.071334,41.9140173 54.071334,41.9140173 C54.071334,41.9140173 47.1264995,40.1117923 46.8849574,41.9140173 C46.6434153,43.7162423 48.9889688,47.3867738 50.7196878,50.3904821 Z" id="Shape" fill="#000000" fill-rule="nonzero" opacity="0.1"></path>
                            <path d="M53.0213245,38.5438566 C53.0213245,38.5438566 57.2133775,46.4996786 57.5387606,47.6350803 C57.7125697,48.2819554 58.2847832,48.7408366 58.9520814,48.7684796 C58.9520814,48.7684796 63.1281646,49.7697157 64.1262725,49.9038813 C65.1243803,50.038047 73.7819678,50.7709518 73.7819678,50.7709518 C73.7819678,50.7709518 75.9778051,50.8390358 76.2433018,50.038047 C76.4868401,49.3051422 80.7287985,45.4543881 83.1841438,48.8145365 C83.6432816,49.4449512 83.7752658,50.2571897 83.5394702,51.0012361 C83.0883254,52.4430161 82.1620814,54.7318418 81.1679659,53.3080841 C79.7706149,51.3056119 78.1456954,51.8683066 78.1456954,52.9356242 C78.1456954,54.0029419 75.9099338,53.6064524 75.1793188,53.7566378 C74.7800757,53.8387392 73.4066793,54.2051916 72.2189309,54.5255871 C70.837022,54.9000289 69.4213729,55.1354801 67.9929423,55.2284549 C65.6354115,55.3826452 62.16,55.5108035 60.9283349,55.0442274 C59.4431504,54.4775278 56.8500662,54.3473671 55.7381741,54.31733 C55.3704799,54.3084118 55.0154946,54.1805818 54.7260927,53.9528801 C53.1862255,52.7430154 51.8838798,51.2566485 50.8853737,49.5694685 C49.1546547,46.5657602 45.5954021,40.3460816 45.834948,38.5438566 C46.0744939,36.7416316 53.0213245,38.5438566 53.0213245,38.5438566 Z" id="Shape" fill="#EFB7B9" fill-rule="nonzero"></path>
                            <path d="M51.6239735,27.5202472 C51.6239735,27.5202472 53.8697162,31.2588628 54.9097446,33.9281582 C55.9497729,36.5974536 57.2133775,41.2712237 57.2133775,41.2712237 L50.9572375,40.5363164 L50.4262441,39.669246 C50.4262441,39.669246 45.9587133,42.472707 46.4917029,43.6741904 C47.0246925,44.8756737 45.2939735,41.8719654 45.42772,38.4677627 C45.5614664,35.06356 44.946632,28.9880593 45.42772,27.5202472 C45.9088079,26.0524351 50.1527625,26.3848455 51.6239735,27.5202472 Z" id="Shape" fill="#000000" fill-rule="nonzero" opacity="0.1"></path>
                            <path d="M45.4357048,38.0672682 C45.3019584,41.471471 47.0326774,44.4751792 46.4996878,43.2736959 C45.9666982,42.0722126 50.4342289,39.2687515 50.4342289,39.2687515 L50.9592337,40.135822 L57.2133775,40.8707293 C57.2133775,40.8707293 55.9497729,36.1969592 54.9097446,33.5276638 C54.284986,32.0175365 53.5703853,30.5464088 52.7698013,29.122225 C52.1290161,27.9547837 51.6239735,27.1197528 51.6239735,27.1197528 C50.7636045,26.4529295 48.9370672,26.0624475 47.4798297,26.1545612 C47.2527507,26.1675134 47.0267224,26.1949358 46.8031126,26.2366625 C46.2042479,26.3548084 45.7211637,26.5830902 45.5075686,26.9435352 C45.4749347,26.9993389 45.4481746,27.0583957 45.42772,27.1197528 C44.9486282,28.5875649 45.5634626,34.6630655 45.4357048,38.0672682 Z" id="Shape" fill="#A36468" fill-rule="nonzero"></path>
                            <path d="M42.6410028,47.3867738 C42.6410028,47.3867738 45.2859886,51.0412855 46.0844749,51.1414091 C46.0784863,51.149419 42.6849196,50.3904821 42.6410028,47.3867738 Z" id="Shape" fill="#000000" fill-rule="nonzero" opacity="0.1"></path>
                            <path d="M42.6410028,52.5932015 C42.6410028,52.5932015 47.6315421,57.6494438 49.2285147,57.6995056 C50.8254872,57.7495674 42.6410028,52.5932015 42.6410028,52.5932015 Z" id="Shape" fill="#000000" fill-rule="nonzero" opacity="0.1"></path>
                            <path d="M42.6410028,54.7038072 C42.6410028,54.7038072 45.834948,58.4584425 46.0345695,58.4584425 C46.2341911,58.4584425 42.5851088,57.1568356 42.6410028,54.7038072 Z" id="Shape" fill="#000000" fill-rule="nonzero" opacity="0.1"></path>
                            <path d="M45.5015799,26.9435352 C46.0149976,26.8667623 46.5109574,26.7000204 46.9668023,26.4509271 C47.1384768,26.3608158 47.3081552,26.2606922 47.4738411,26.1545612 C48.1283859,25.7151335 48.7381807,25.2120858 49.2943898,24.652707 C50.212649,23.757602 51.128912,22.7803956 51.508193,21.5528801 C51.5934782,21.2699635 51.6562237,20.9806976 51.6958373,20.6878121 C51.9234059,19.147911 51.7317692,17.4478121 52.8296878,16.4005192 C53.0359935,16.2051918 53.2726523,16.0448957 53.5303595,15.9259333 C55.0874078,15.1830161 57.3451277,15.6636094 58.5069253,14.3239555 C59.2455251,13.4749073 59.2275591,12.2954512 59.7944844,11.3723115 C60.0420151,10.9718171 60.4971523,10.6253894 60.9003879,10.2569345 C59.2934861,7.80306563 56.3636134,6.5719106 53.4929927,7.14429008 C50.6223719,7.71666955 48.3845723,9.97821831 47.8353181,12.8620079 C47.2860639,15.7457975 48.5350997,18.6756276 50.9931693,20.2692954 C50.9492526,20.3714215 50.9013434,20.4695426 50.851438,20.5756737 C49.4800378,23.3791347 46.4936991,25.8381706 46.4936991,25.8381706 L46.7971239,26.2226452 C46.1922706,26.3608158 45.715175,26.5830902 45.5015799,26.9435352 Z" id="Shape" fill="#000000" fill-rule="nonzero" opacity="0.1"></path>
                            <path d="M58.1076821,14.1277132 C56.7562441,15.6816316 53.9156291,14.7765142 52.4284484,16.2002719 C51.1229234,17.4478121 51.6419395,19.6244994 51.1089499,21.3526329 C50.7296689,22.5801483 49.8134059,23.5553523 48.8951466,24.4524598 C47.5576821,25.7580717 45.8469253,27.0837083 44.0183917,26.709246 C42.9344465,26.4869716 41.8724598,25.6739679 40.8244465,26.0484302 C40.3034342,26.2366625 39.9301419,26.6892213 39.5408798,27.0877132 C38.2186312,28.4394074 36.4999457,29.3312656 34.6361779,29.6328554 C34.2676344,29.7162431 33.8834829,29.6982552 33.5242857,29.5807911 C32.9653453,29.3525093 32.6639167,28.7397528 32.1548817,28.4133498 C31.1567739,27.7725587 29.8752034,28.4293696 28.8391675,29.0020766 C22.9777973,32.1856681 16.0346421,32.6868095 9.77929991,30.377775 L11.3942384,29.5767862 C11.0508893,28.8739184 10.122649,28.7197281 9.53176916,28.2050927 C8.31407758,27.1457849 9.03071902,25.0271693 10.3182781,24.0559703 C11.6058373,23.0847713 13.2726774,22.7463535 14.6061495,21.8392336 C14.8776348,21.6550062 15.1531126,21.4107046 15.1790634,21.0843016 C15.1746855,20.844575 15.0989069,20.6116449 14.9614759,20.4154759 C14.2508231,19.1599258 13.4643141,17.8122621 13.6240114,16.3764895 C13.8675497,14.1737701 16.2650047,12.8200989 18.4668307,12.6659085 C20.6686566,12.5117182 22.8485241,13.1765389 25.0543425,13.2145859 C25.8528288,13.2286032 26.6892431,13.1505068 27.3739451,12.7359951 C28.3301325,12.1592831 28.8112204,11.0599258 29.3921192,10.1047466 C30.4289597,8.40879069 31.9147331,7.0348221 33.683983,6.13584672 C35.6801987,5.12459827 37.9399149,4.77016069 40.0159792,3.93312732 C42.1359603,3.08007417 44.0643046,1.73040791 46.2821003,1.18773795 C49.5019962,0.386749073 52.951457,1.43404203 55.7321854,3.24427689 C57.0716462,4.11535229 61.3495364,6.91080346 61.3215894,8.69901112 C61.299631,9.76032138 59.9242384,10.3350309 59.4032261,11.1680593 C58.828316,12.0992089 58.8462819,13.278665 58.1076821,14.1277132 Z" id="Shape" fill="#965D7B" fill-rule="nonzero"></path>
                            <g id="Group" opacity="0.1" transform="translate(8.877010, 7.847960)" fill="#000000" fill-rule="nonzero">
                                <path d="M5.88883633,11.5642769 C6.02529001,11.7609352 6.10096905,11.9935592 6.10642384,12.2331026 C6.09847525,12.3175471 6.0747746,12.3997404 6.03655629,12.4754017 C5.44966887,11.4381211 4.83882687,10.3387639 4.7410123,9.18133498 C5.00052034,10.008356 5.45765374,10.8033375 5.88883633,11.5642769 Z" id="Shape"></path>
                                <path d="M0.459129612,19.3538937 C1.04801325,19.868529 1.97625355,20.0227194 2.32159886,20.7255871 L1.75068117,21.0099382 C1.36599643,20.8284609 1.00022547,20.6091154 0.658751183,20.3551298 C0.219888049,19.9628166 -0.0105907116,19.3870369 0.0359318827,18.7992089 C0.137696258,19.0111916 0.281731325,19.1999783 0.459129612,19.3538937 Z" id="Shape"></path>
                                <path d="M19.7665279,20.1528801 C20.8025639,19.5801731 22.0861306,18.9233622 23.0822422,19.5641533 C23.589281,19.8905562 23.8927058,20.5033127 24.4516462,20.7315946 C24.810152,20.8490873 25.1936705,20.8670779 25.5615421,20.7836588 C27.4258883,20.4820698 29.1452105,19.5902441 30.4682403,18.2385167 C30.8555061,17.8380222 31.2287985,17.387466 31.751807,17.1992336 C32.7938316,16.8247713 33.8558184,17.637775 34.9457521,17.8600494 C36.7742857,18.2345117 38.4830464,16.9088752 39.8225071,15.6032633 C40.7407663,14.7081582 41.6550331,13.7309518 42.0343141,12.5034363 C42.5692999,10.7753028 42.0502838,8.59861557 43.3558089,7.3510754 C44.846982,5.92731768 47.6816083,6.83243511 49.0350426,5.27851669 C49.7716462,4.42946848 49.7556764,3.25001236 50.3226017,2.32687268 C50.8016935,1.547911 52.0433396,0.995228677 52.2190066,0.0560692213 C52.3562137,0.301219146 52.4322377,0.576037959 52.4405866,0.857058096 C52.4186282,1.91836836 51.0432356,2.49307787 50.5222233,3.3261063 C49.955298,4.24924598 49.9712677,5.4287021 49.2346641,6.27775031 C47.8812299,7.83166873 45.0426112,6.9265513 43.5554305,8.35030902 C42.2499054,9.5978492 42.7689215,11.7745365 42.2339357,13.50267 C41.8546547,14.7301854 40.9403879,15.7053894 40.0221287,16.6024969 C38.6826679,17.9081088 36.9739073,19.2337454 35.1453737,18.8592831 C34.0594324,18.6370087 32.9974456,17.8240049 31.9514286,18.1984672 C31.4284201,18.3866996 31.0551277,18.8392583 30.6678619,19.2377503 C29.3448321,20.5894777 27.6255098,21.4813034 25.7611637,21.7828925 C25.3932921,21.8663115 25.0097736,21.8483209 24.6512677,21.7308282 C24.0923273,21.5025464 23.7889026,20.8897899 23.2818638,20.5633869 C22.2837559,19.9225958 21.0021854,20.5794067 19.9661495,21.1521137 C14.1047793,24.3357052 7.16162409,24.8368465 0.90628193,22.5278121 L2.02216651,21.9731273 C7.94292621,23.7574385 14.3283442,23.1024113 19.7665279,20.1528801 Z" id="Shape"></path>
                            </g>
                            <path d="M77.9740208,79.9589864 L79.6528382,79.1439802 L79.6528382,78.8255871 C79.6528382,78.7034363 78.3133775,78.9737701 77.2753453,79.2040544 C78.02193,79.3362176 77.9919868,79.8388381 77.9740208,79.9589864 Z" id="Shape" fill="#000000" fill-rule="nonzero" opacity="0.1"></path>
                            <ellipse id="Oval" fill="#6C63FF" fill-rule="nonzero" cx="79.4332545" cy="56.6081582" rx="4.04433302" ry="4.93609394"></ellipse>
                            <polygon id="Shape" fill="#DDA2A6" fill-rule="nonzero" points="40.5070482 50.1842274 34.0053737 56.6161681 12.6318921 56.2417058 18.5087512 50.1842274"></polygon>
                            <polygon id="Shape" fill="#B77B7F" fill-rule="nonzero" points="40.5070482 72.1873918 40.5070482 50.1842274 34.0053737 56.6161681 34.0053737 78.1467491"></polygon>
                            <polygon id="Shape" fill="#DDA2A6" fill-rule="nonzero" points="12.6318921 56.2417058 12.6318921 78.1467491 34.0053737 78.1467491 34.0053737 56.6161681"></polygon>
                            <polygon id="Shape" fill="#FFFFFF" fill-rule="nonzero" opacity="0.3" points="12.6318921 56.2417058 12.6318921 78.1467491 34.0053737 78.1467491 34.0053737 56.6161681"></polygon>
                            <polygon id="Shape" fill="#DCE0ED" fill-rule="nonzero" points="32.268666 62.6456119 16.3728004 59.9082324 14.3007285 70.377157 30.6657048 73.3928801"></polygon>
                            <polygon id="Shape" fill="#6C63FF" fill-rule="nonzero" points="29.1286187 65.0906304 18.4428761 63.4065513 18.1753832 64.8042769 28.8611258 66.6225216"></polygon>
                            <polygon id="Shape" fill="#6C63FF" fill-rule="nonzero" points="26.1901892 68.0803214 20.1117124 67.1952287 19.8442195 68.7471446 26.1901892 69.6402472"></polygon>
                            <polygon id="Shape" fill="#65617D" fill-rule="nonzero" points="37.8780322 61.7324845 37.5885809 53.0697899 35.9177483 54.7238319 36.2091958 63.4065513"></polygon>
                            <polygon id="Shape" fill="#65617D" fill-rule="nonzero" points="16.3588269 52.4009642 36.8978903 52.6793078 37.5885809 53.0697899 35.9177483 54.7238319 35.340842 54.3834116 14.9974078 53.8046972"></polygon>
                        </g>
                    </g>
                </g>
            </g>
        </g>
    </g>
</svg>