<?xml version="1.0" encoding="UTF-8"?>
<svg width="181px" height="178px" viewBox="0 0 181 178" version="1.1" xmlns="http://www.w3.org/2000/svg" xmlns:xlink="http://www.w3.org/1999/xlink">
    <!-- Generator: Sketch 51.2 (57519) - http://www.bohemiancoding.com/sketch -->
    <title>ic_inboxVideo</title>
    <desc>Created with Sketch.</desc>
    <defs>
        <linearGradient x1="0.00572912906%" y1="50.0083239%" x2="99.9475584%" y2="50.0083239%" id="linearGradient-1">
            <stop stop-color="#808080" stop-opacity="0.25" offset="0%"></stop>
            <stop stop-color="#808080" stop-opacity="0.12" offset="54%"></stop>
            <stop stop-color="#808080" stop-opacity="0.1" offset="100%"></stop>
        </linearGradient>
        <linearGradient x1="50.0009134%" y1="100.0056%" x2="50.0009134%" y2="-0.000695461321%" id="linearGradient-2">
            <stop stop-color="#808080" stop-opacity="0.25" offset="0%"></stop>
            <stop stop-color="#808080" stop-opacity="0.12" offset="54%"></stop>
            <stop stop-color="#808080" stop-opacity="0.1" offset="100%"></stop>
        </linearGradient>
    </defs>
    <g id="Page-1" stroke="none" stroke-width="1" fill="none" fill-rule="evenodd">
        <g id="Desktop-Copy-6" transform="translate(-722.000000, -1047.000000)" fill-rule="nonzero">
            <g id="Group-21" transform="translate(70.000000, 1007.000000)">
                <g id="Group-5" transform="translate(652.000000, 40.000000)">
                    <g id="ic_inboxVideo">
                        <circle id="Oval-2-Copy-2" fill="#EDECFF" cx="92" cy="89" r="89"></circle>
                        <g id="undraw_newsletter_vovu" transform="translate(0.000000, 16.000000)">
                            <g id="Group" opacity="0.5" transform="translate(0.152473, 0.144033)" fill="url(#linearGradient-1)">
                                <path d="M46.9570075,51.2273251 C46.9564802,47.6078709 46.3906802,44.0107874 45.2801358,40.5665844 L42.5198532,31.9914403 C42.5198532,31.8485597 42.5198532,31.7079835 42.5198532,31.5674074 C42.6049619,26.0711111 38.3288241,23.3287243 36.6818555,23.6260082 C34.9957829,23.9302058 30.3171039,21.5795885 30.3171039,21.5795885 L30.3171039,21.6441152 C29.9963175,21.2741466 29.7070109,20.8779206 29.4522153,20.4595885 C31.085268,19.2679899 32.1697027,17.4669763 32.4601993,15.4639725 C32.7506958,13.4609686 32.2227066,11.4252312 30.9956734,9.81728395 C31.5013531,9.43661266 31.8870324,8.91821426 32.1066871,8.32395062 C32.4885262,7.24773663 32.1963963,6.01942387 31.5753327,5.06074074 C31.3112485,4.66053999 31.0025645,4.2917476 30.6552385,3.96148148 C30.1291498,3.43931101 29.554557,2.9685932 28.9392628,2.55572016 C27.4050058,1.49102881 25.7189331,0.576131687 23.8787447,0.251193416 C23.5603231,0.17586654 23.2287672,0.17586654 22.9103456,0.251193416 C22.6339842,0.362926667 22.3709026,0.505147519 22.1259653,0.675226337 C20.8654362,1.39423868 19.2966756,1.08312757 17.8429268,1.00707819 C16.3891779,0.931028807 14.6225971,1.33893004 14.16255,2.7055144 C14.0199354,3.1272428 14.0291363,3.58353909 13.9325264,4.01679012 C13.7025029,5.07687243 12.8859193,5.89958848 12.2556547,6.78222222 C11.6253902,7.66485597 11.1538419,8.8562963 11.6782956,9.81497942 C11.857714,10.1376132 12.1383427,10.4348971 12.1383427,10.8036214 C12.1383427,11.068642 11.9819267,11.3060082 11.9083192,11.5595062 C11.7496029,12.1356379 12.0486336,12.7117695 12.5086807,13.1288889 C12.7069178,13.3430107 12.9403205,13.5215072 13.1987513,13.6566255 C13.927926,14.0299588 14.7675119,14.1451852 15.510488,14.4908642 C15.8813485,14.6653582 16.2215805,14.8988286 16.5179911,15.1822222 C17.2514345,15.9514414 17.6459099,16.9834744 17.6129032,18.046749 L17.767019,18.0628807 C17.767019,18.1089712 17.767019,18.1527572 17.767019,18.1988477 C17.9280355,18.217284 18.0982529,18.2334156 18.2661701,18.2403292 C18.5077156,18.6309927 18.7841079,18.9989177 19.0919547,19.3395885 C19.039816,19.5362414 18.9807766,19.7359671 18.9148365,19.9387654 C18.3742812,20.3144033 13.9532285,23.2641975 8.92491374,22.5544033 C3.55846432,21.796214 0.489950162,45.3023868 0.489950162,45.3023868 C0.291045577,46.6466283 0.194157995,48.0040442 0.200120489,49.362963 C0.177118134,52.8197531 0.901692316,57.3435391 4.93860562,56.6775309 L7.08472534,55.9700412 L7.08472534,67.5963786 C7.08472534,67.5963786 7.39065666,70.7812346 6.31874692,72.8967901 C5.24683718,75.0123457 9.6931924,74.26107 9.6931924,74.26107 C9.6931924,74.26107 9.86340983,74.4385185 10.1762419,74.7404115 L10.0773317,75.0192593 L10.2084452,75.1529218 C9.62366249,77.155884 8.83514733,79.0933966 7.85530423,80.9349794 L7.98181719,80.9995062 C7.90130894,81.1539095 7.85530423,81.2299588 7.85530423,81.2299588 C7.85530423,81.2299588 9.50687332,82.0757202 11.779506,83.1657613 C13.605893,89.3511111 17.6037023,103.676049 16.2879676,106.404609 L16.3247713,106.482963 C16.5708965,106.994568 17.9464374,110.011193 17.6681089,112.774321 C17.4173832,115.244774 20.8309327,126.470123 22.1052632,130.546831 L21.5026015,130.668971 L23.6487212,138.402963 L23.1886741,143.408395 C23.1886741,143.408395 20.5825073,150.384198 26.7149351,149.019918 C32.8473629,147.655638 31.1612903,142.044115 31.1612903,142.044115 L31.3154061,130.668971 C31.3154061,130.668971 30.7242456,130.339424 29.9950709,130.023704 C29.4936196,128.666337 28.4010077,125.458436 28.4010077,123.239177 C28.4010077,120.358519 26.4067035,107.920988 26.4067035,107.920988 L26.4067035,107.895638 L26.4067035,107.847243 L26.4067035,107.833416 L26.3952024,107.66749 L26.3952024,107.639835 C26.3952024,107.485432 26.3698998,107.273416 26.3514979,107.015309 L26.3514979,107.001481 C26.1214743,103.639177 25.4314037,92.2156379 25.9351553,86.2607407 C26.3781607,85.9580791 26.839051,85.6825681 27.3152966,85.4357202 C28.8081494,89.215144 32.6564434,99.4265021 32.4103182,103.710617 C32.1043869,109.011029 32.3344104,104.849053 32.4103182,104.171523 C32.4333206,103.961811 32.4494222,104.215309 32.4563229,104.784527 C32.4563229,104.88823 32.4563229,105.003457 32.4563229,105.125597 C32.4563229,105.247737 32.4563229,105.383704 32.4563229,105.52428 C32.4563229,105.664856 32.4563229,105.816955 32.4563229,105.985185 C32.4563229,106.065075 32.4563229,106.146502 32.4563229,106.229465 C32.4563229,106.395391 32.4563229,106.568999 32.4563229,106.750288 C32.4563229,106.840933 32.4563229,106.933114 32.4563229,107.026831 C32.4563229,107.487737 32.4563229,107.999342 32.4402213,108.531687 C32.4402213,108.637695 32.4402213,108.74524 32.4402213,108.854321 C32.4402213,109.179259 32.4402213,109.511111 32.4241196,109.847572 C32.4241196,110.308477 32.4057177,110.755556 32.3965168,111.218765 C32.3735144,112.255802 32.3436114,113.304362 32.3068076,114.286091 C32.3068076,114.395171 32.3029739,114.503484 32.2953064,114.611029 C32.287639,114.826118 32.2792048,115.036598 32.2700038,115.242469 C32.2608029,115.44834 32.2516019,115.649602 32.242401,115.846255 C32.2332001,116.041372 32.2232324,116.231111 32.2124979,116.415473 C32.2009968,116.632099 32.1871954,116.839506 32.1756942,117.037695 L31.3430089,116.91786 L31.1658908,118.835226 C30.8868848,121.879358 31.2795315,124.947715 32.3160085,127.822881 C32.6012377,128.611029 32.8220604,129.26321 32.8703653,129.495967 C33.0244811,130.254156 32.8703653,135.718189 32.8703653,135.718189 C32.8703653,135.718189 33.7904595,142.846091 38.0849992,141.479506 C40.017197,140.864198 40.9556931,138.992922 41.404239,137.117037 C41.9019273,134.942468 41.7163337,132.666918 40.8728846,130.60214 C40.2633222,129.067325 39.6399584,126.914897 40.0793034,125.251029 C40.8452818,122.37037 40.8452818,118.275226 40.8452818,118.275226 L40.3714333,118.208395 C40.4895301,117.983467 40.5962429,117.752722 40.691166,117.517037 C40.691166,117.517037 40.5370502,107.052181 41.9171915,105.687901 C42.6762692,104.936626 42.6072622,103.132181 42.3772386,101.657284 C42.0486407,99.5228356 41.9714372,97.3571045 42.1472151,95.2046091 C42.2415247,94.0961317 42.3772386,93.130535 42.5359549,92.7871605 C42.9407963,91.9851852 43.3456378,83.9009053 41.5537543,80.0108642 L41.921792,79.8956379 L41.8642861,79.6098765 L41.921792,79.5914403 C42.1920874,80.3142171 42.4991885,81.0226364 42.8418862,81.7139095 C42.9324199,81.7850174 43.0365391,81.8367819 43.1478175,81.8660082 C48.114026,80.9925926 48.3141464,76.3489712 48.0381182,73.8139918 C48.2474396,73.9153909 48.3624514,73.9799177 48.3624514,73.9799177 L48.8224985,67.2967901 C49.2940468,66.2297942 49.4688647,64.8678189 49.4573635,63.3952263 C49.4780656,58.1316872 46.9570075,51.2273251 46.9570075,51.2273251 Z M41.482447,70.2235391 C41.1420122,67.3129218 40.6704639,64.5728395 40.6704639,64.5728395 L38.3702284,56.3825514 L38.3702284,53.4004938 L42.0184019,67.0432922 L41.482447,70.2235391 Z" id="Shape"></path>
                            </g>
                            <path d="M31.293061,115.10535 L31.1228435,116.97893 C30.8542292,119.955892 31.2348931,122.955771 32.2384577,125.7707 C32.5121858,126.542716 32.7261077,127.178765 32.7721124,127.406914 C32.9193275,128.148971 32.7721124,133.483951 32.7721124,133.483951 C32.7721124,133.483951 33.6600033,140.450535 37.8027274,139.116214 C39.6659182,138.517037 40.56301,136.684938 41.0046552,134.85284 C41.4834588,132.728045 41.3037036,130.507464 40.4894025,128.487737 C39.9005422,126.98749 39.2978805,124.878848 39.7234241,123.258765 C40.4640999,120.442634 40.4640999,116.441975 40.4640999,116.441975 L31.293061,115.10535 Z" id="Shape" fill="#5A5773"></path>
                            <path d="M26.8559067,82.9433745 C26.8559067,82.9433745 32.6248973,97.0240329 32.3281669,102.209218 C32.0314366,107.394403 32.2545594,103.32 32.3281669,102.653992 C32.4592804,101.46716 32.3281669,115.559342 31.8842215,117.17251 C31.8842215,117.17251 37.9499425,121.617942 40.3168848,115.6907 C40.3168848,115.6907 40.1696698,105.465514 41.4992059,104.131193 C42.2306808,103.398354 42.1593735,101.633086 41.9431513,100.192757 C41.6240115,98.1092728 41.5468226,95.9957655 41.7131278,93.8944856 C41.802837,92.811358 41.9270497,91.857284 42.0880662,91.5323457 C42.5320116,90.6427984 42.9759571,80.5651029 40.3122844,77.7489712 L26.8559067,82.9433745 Z" id="Shape" fill="#605D82"></path>
                            <path d="M32.6248973,117.179424 C33.0688428,115.550123 33.1999562,101.46716 33.0688428,102.660905 C32.9952352,103.326914 32.7721124,107.403621 33.0688428,102.216132 C33.3655731,97.028642 27.5965825,82.9502881 27.5965825,82.9502881 L40.5032039,77.9771193 C40.4433978,77.90107 40.3812914,77.8296296 40.3191851,77.7627984 L26.8582069,82.9502881 C26.8582069,82.9502881 32.6271975,97.0309465 32.3304672,102.216132 C32.0337368,107.401317 32.2568596,103.326914 32.3304672,102.660905 C32.4615806,101.474074 32.3304672,115.566255 31.8865217,117.179424 C31.8865217,117.179424 34.3086697,118.953909 36.6894134,118.764938 C34.5708965,118.605926 32.6248973,117.179424 32.6248973,117.179424 Z" id="Shape" fill="#000000" opacity="0.1"></path>
                            <path d="M21.8252916,128.59144 L23.8955036,136.150288 L23.4515581,141.040494 C23.4515581,141.040494 20.9374007,147.857284 26.8536064,146.522963 C32.7698121,145.188642 31.1435456,139.706173 31.1435456,139.706173 L31.2907607,128.59144 C31.2907607,128.59144 28.9238184,127.257119 27.8887124,127.406914 C26.8536064,127.556708 21.8252916,128.59144 21.8252916,128.59144 Z" id="Shape" fill="#5A5773"></path>
                            <path d="M11.6191467,79.3874897 C11.6191467,79.3874897 18.4232433,101.469465 16.7969768,104.87786 C16.7969768,104.87786 18.4232433,108.138765 18.1288132,111.100082 C17.834383,114.061399 22.8626978,129.921152 22.8626978,129.921152 L30.2602552,128.586831 C30.2602552,128.586831 28.4844734,124.141399 28.4844734,121.325267 C28.4844734,118.509136 26.5614765,106.345844 26.5614765,106.345844 C26.5614765,106.345844 24.93521,84.1140741 26.8582069,81.742716 L11.6191467,79.3874897 Z" id="Shape" fill="#605D82"></path>
                            <g id="Group" opacity="0.1" transform="translate(11.423627, 79.189300)" fill="#000000">
                                <path d="M14.8595213,4.36016461 C13.6334958,9.39325103 14.9883345,27.9147325 14.9883345,27.9147325 C14.9883345,27.9147325 16.9113314,40.0665021 16.9113314,42.8941564 C16.9113314,45.0442798 17.9441371,48.1415638 18.4340873,49.4874074 L18.8343283,49.4159671 C18.8343283,49.4159671 17.0585465,44.970535 17.0585465,42.1544033 C17.0585465,39.3382716 15.1355496,27.1749794 15.1355496,27.1749794 C15.1355496,27.1749794 13.8980229,10.2482305 14.8595213,4.36016461 Z" id="Shape"></path>
                                <path d="M5.37335013,25.7083564 L5.41495013,25.7941564 C5.42795013,25.7083564 5.44095013,25.6173564 5.44875013,25.5341564 C5.42661655,25.593476 5.40145005,25.6516193 5.37335013,25.7083564 Z" id="Shape"></path>
                                <path d="M15.0987458,3.28164609 C15.1659561,3.02599991 15.2789695,2.78471517 15.43228,2.56954733 L0.195520018,0.1981893 C0.195520018,0.1981893 0.285229202,0.486255144 0.439344981,1.00016461 L15.0987458,3.28164609 Z" id="Shape"></path>
                            </g>
                            <path d="M47.1209814,71.3838683 C47.1209814,71.3838683 49.3407087,79.6801646 42.6838272,80.8693004 C42.575829,80.8411489 42.4748052,80.7909351 42.3870968,80.7218107 C42.3870968,80.7218107 38.541103,73.162963 41.4992059,70.1993416 L47.1209814,71.3838683 Z" id="Shape" fill="#A1616A"></path>
                            <path d="M19.9022948,16.257284 C19.9022948,16.257284 20.3462402,22.4795062 15.4651405,25.4454321 C10.5840407,28.411358 25.8162002,36.5601646 25.8162002,36.5601646 L33.8049181,23.8138272 C33.8049181,23.8138272 30.4051701,24.2539918 28.3349581,18.331358 L19.9022948,16.257284 Z" id="Shape" fill="#A1616A"></path>
                            <path d="M16.6474615,25.8855967 C16.6474615,25.8855967 24.192234,41.5955556 30.9963306,26.775144 L41.4992059,78.9404115 C41.4992059,78.9404115 25.2250397,83.9804115 25.0801249,86.3517695 C24.93521,88.7231276 8.6633441,80.277037 8.6633441,80.277037 C8.6633441,80.277037 12.2126075,73.7552263 11.3270168,69.7545679 C10.4414261,65.7539095 16.6474615,25.8855967 16.6474615,25.8855967 Z" id="Shape" fill="#000000" opacity="0.1"></path>
                            <path d="M16.6474615,25.5883128 C16.6474615,25.5883128 24.192234,41.2982716 30.9963306,26.4778601 L41.4992059,78.6454321 C41.4992059,78.6454321 25.2250397,83.6854321 25.0801249,86.0567901 C24.93521,88.4281481 8.6633441,79.9797531 8.6633441,79.9797531 C8.6633441,79.9797531 12.2126075,73.4579424 11.3270168,69.457284 C10.4414261,65.4566255 16.6474615,25.5883128 16.6474615,25.5883128 Z" id="Shape" fill="#E1E7EF"></path>
                            <path d="M24.0450189,132.741893 C24.0450189,132.741893 22.122022,128.443951 26.5591763,128.443951 C30.9963306,128.443951 30.257955,132.297119 30.257955,132.297119 L24.0450189,132.741893 Z" id="Shape" fill="#5A5773"></path>
                            <path d="M34.1039487,121.624856 C34.1039487,121.624856 32.3281669,117.02963 36.7676214,116.88214 C41.207076,116.73465 38.9873487,121.030288 38.9873487,121.030288 L34.1039487,121.624856 Z" id="Shape" fill="#5A5773"></path>
                            <path d="M30.3315625,22.2490535 C30.3315625,22.2490535 34.8423243,24.5535802 36.4708911,24.2493827 C38.0994578,23.9451852 42.3870968,26.7682305 42.0926666,32.4004938 L44.7655403,40.8027984 C45.8347614,44.1718853 46.3778922,47.686278 46.3757051,51.2215638 C46.3757051,51.2215638 50.2216989,61.8915226 48.1514869,66.6342387 L47.7075415,73.1560494 C47.7075415,73.1560494 44.3054932,71.229465 40.7539296,71.8217284 L41.6487212,66.4959671 L37.6463114,51.3759671 L30.9894299,35.2212346 L30.3315625,22.2490535 Z" id="Shape" fill="#000000" opacity="0.1"></path>
                            <path d="M30.3315625,21.9563786 C30.3315625,21.9563786 34.8423243,24.2609053 36.4708911,23.9567078 C38.0994578,23.6525103 42.3870968,26.4755556 42.0926666,32.1078189 L44.7655403,40.5101235 C45.8347614,43.8792104 46.3778922,47.3936031 46.3757051,50.9288889 C46.3757051,50.9288889 50.2216989,61.5988477 48.1514869,66.3415638 L47.7075415,72.8633745 C47.7075415,72.8633745 44.3054932,70.9367901 40.7539296,71.5290535 L41.6418205,66.1940741 L37.6463114,51.0786831 L30.9963306,34.9239506 L30.3315625,21.9563786 Z" id="Shape" fill="#67647E"></path>
                            <path d="M37.8027274,39.9639506 L37.8027274,56.7109465 L40.0224547,64.7145679 C40.0224547,64.7145679 41.5015061,73.4579424 41.0575607,76.1265844 C40.6136152,78.7952263 33.5127882,79.3874897 31.5897913,77.1636214 C29.6667945,74.9397531 30.7019004,55.9619753 30.7019004,55.9619753 L30.3315625,28.1809053 L30.6282929,27.291358 L37.8027274,39.9639506 Z" id="Shape" fill="#000000" opacity="0.1"></path>
                            <path d="M38.1063585,39.2241975 L38.1063585,55.9711934 L40.3260858,63.9748148 C40.3260858,63.9748148 41.8051372,72.7181893 41.3611917,75.3868313 C40.9172463,78.0554733 33.8164193,78.6477366 31.8934224,76.4238683 C29.9704255,74.2 31.0055315,55.2222222 31.0055315,55.2222222 L30.6351936,27.4342387 L38.1063585,39.2241975 Z" id="Shape" fill="#67647E"></path>
                            <path d="M8.29070595,53.1550617 L13.0245906,67.9040329 L10.8048634,74.2023045 C10.8048634,74.2023045 21.3077386,85.317037 27.9646202,79.9820576 C27.9646202,79.9820576 28.705296,57.3055144 27.2239444,51.970535 C25.7425927,46.6355556 18.6440659,28.6948148 18.6440659,28.6948148 L17.1742155,23.9590123 L9.33501287,28.4044444 L8.29070595,53.1550617 Z" id="Shape" fill="#000000" opacity="0.1"></path>
                            <path d="M7.92036804,52.4130041 L7.92036804,66.9315226 C7.92036804,66.9315226 8.21709842,70.0449383 7.17969221,72.1190123 C6.142286,74.1930864 10.4345254,73.4533333 10.4345254,73.4533333 C10.4345254,73.4533333 20.9374007,84.5680658 27.5942823,79.2330864 C27.5942823,79.2330864 28.3349581,56.5565432 26.8536064,51.2215638 C25.3722548,45.8865844 18.273728,27.9458436 18.273728,27.9458436 L16.7946766,23.2031276 L8.95547401,27.6485597 L7.92036804,52.4130041 Z" id="Shape" fill="#67647E"></path>
                            <path d="M19.3847418,20.6243621 C19.3847418,20.6243621 14.87398,23.9590123 9.69614984,23.2169547 C4.51831973,22.4748971 1.56021688,45.4487243 1.56021688,45.4487243 C1.56021688,45.4487243 -0.362779999,57.3055144 5.85015609,56.2684774 L19.6078646,51.673251 C19.6078646,51.673251 16.6497618,48.5598354 17.0937072,44.559177 L10.4345254,47.2255144 L10.7335561,34.4814815 L19.3847418,20.6243621 Z" id="Shape" fill="#000000" opacity="0.1"></path>
                            <path d="M1.85464702,45.1514403 C1.85464702,45.1514403 -0.0683498549,57.0082305 6.14458623,55.9711934 L19.9022948,51.3759671 C19.9022948,51.3759671 16.9441919,48.264856 17.3881374,44.261893 L10.7335561,46.930535 L1.85464702,45.1514403 Z" id="Shape" fill="#000000" opacity="0.1"></path>
                            <path d="M17.0615039,45.8243621 C17.0615039,45.8243621 21.6780766,39.742716 25.0778246,42.6625514 C28.4775727,45.5823868 18.2806287,50.9334979 18.2806287,50.9334979 L17.0615039,45.8243621 Z" id="Shape" fill="#A1616A"></path>
                            <path d="M19.3847418,20.3270782 C19.3847418,20.3270782 14.87398,23.6617284 9.69614984,22.9196708 C4.51831973,22.1776132 1.56021688,45.1514403 1.56021688,45.1514403 C1.56021688,45.1514403 -0.362779999,57.0082305 5.85015609,55.9711934 L19.6078646,51.3759671 C19.6078646,51.3759671 16.6497618,48.2625514 17.0937072,44.261893 L10.4345254,46.930535 L10.7335561,34.1841975 L18.2783285,27.9619753 L19.3847418,20.3270782 Z" id="Shape" fill="#67647E"></path>
                            <path d="M28.4821732,18.6217284 L20.0495098,16.5476543 C20.0495098,16.5476543 20.4888548,17.0454321 19.9759023,18.9927572 C21.3330412,20.5529218 23.000712,22.6246914 25.2273399,22.6246914 C26.8207744,22.6276841 28.3721517,22.1125588 29.6483926,21.1567078 C29.1721411,20.3549502 28.7812572,19.5052964 28.4821732,18.6217284 Z" id="Shape" fill="#000000" opacity="0.1"></path>
                            <ellipse id="Oval" fill="#A1616A" cx="25.0801249" cy="14.9183539" rx="7.39755737" ry="7.41135802"></ellipse>
                            <path d="M27.8841119,11.7012346 C29.6000876,11.4085597 31.4862807,10.6457613 32.0613396,9.00032922 C32.4293773,7.94716049 32.1487486,6.74880658 31.5483871,5.8108642 C30.9480256,4.87292181 30.0647352,4.15160494 29.1538419,3.50633745 C27.6747905,2.46469136 26.0439235,1.57053498 24.2635413,1.25711934 C23.9565685,1.18358982 23.6366184,1.18358982 23.3296457,1.25711934 C23.0626912,1.36659111 22.8088433,1.50573356 22.5728682,1.67193416 C21.3560436,2.37481481 19.8424886,2.07061728 18.4324443,1.99687243 C17.0223999,1.92312757 15.3317268,2.3218107 14.8877814,3.65613169 C14.7497672,4.06864198 14.7589682,4.51341564 14.6577578,4.93744856 C14.4277343,5.9744856 13.6479544,6.78106996 13.047593,7.64526749 C12.4472315,8.50946502 11.9848842,9.67786008 12.490936,10.6088889 C12.6634536,10.9246091 12.9509831,11.2149794 12.9509831,11.5744856 C12.9065934,11.8300058 12.8292723,12.0786693 12.7209595,12.3142387 C12.5116381,13.0793416 13.1212005,13.851358 13.8250726,14.2154733 C14.5289446,14.5795885 15.3386275,14.6925103 16.056301,15.0312757 C17.4280626,15.7094508 18.2791719,17.1267109 18.234624,18.6586008 C18.8878909,18.7346502 19.6492689,18.7738272 20.0909141,18.2852675 C20.2887343,18.0663374 20.3853442,17.7736626 20.5647626,17.5409053 C20.7947861,17.2367078 21.1536229,17.0569547 21.448053,16.8126749 C22.9961115,15.5382716 21.8965989,13.7776132 22.7729887,12.4041152 C23.2330358,11.6966255 23.9645107,11.913251 24.7051865,11.9247737 C25.7694672,11.9497219 26.8337443,11.8748829 27.8841119,11.7012346 Z" id="Shape" fill="#000000" opacity="0.1"></path>
                            <path d="M27.7368969,11.5537449 C29.4528726,11.26107 31.3390657,10.4982716 31.9141245,8.85283951 C32.2821622,7.79967078 32.0015335,6.60131687 31.401172,5.66337449 C30.8008106,4.7254321 29.9175201,4.00411523 29.0066269,3.35884774 C27.5275754,2.31720165 25.8967085,1.42304527 24.1163262,1.10962963 C23.8093535,1.03610011 23.4894033,1.03610011 23.1824306,1.10962963 C22.9154762,1.2191014 22.6616283,1.35824385 22.4256531,1.52444444 C21.2088285,2.2273251 19.6952736,1.92312757 18.2852292,1.84938272 C16.8751848,1.77563786 15.1845117,2.17432099 14.7405663,3.50864198 C14.6025522,3.92115226 14.6117531,4.36592593 14.5105427,4.78995885 C14.2805192,5.82699588 13.5007394,6.63358025 12.9003779,7.49777778 C12.3000164,8.36197531 11.8376691,9.53037037 12.3437209,10.4613992 C12.5162386,10.7771193 12.803768,11.0674897 12.803768,11.4269959 C12.7593783,11.6825161 12.6820573,11.9311796 12.5737445,12.166749 C12.364423,12.9318519 12.9739854,13.7038683 13.6778575,14.0679835 C14.3817296,14.4320988 15.1914125,14.5450206 15.9090859,14.883786 C17.2866313,15.5613648 18.1412459,16.9835729 18.0943097,18.5203292 C18.7475765,18.5963786 19.5089545,18.6355556 19.9505997,18.1469959 C20.14842,17.9280658 20.2450298,17.6353909 20.4244482,17.4026337 C20.6544718,17.0984362 21.0133085,16.9186831 21.3077386,16.6744033 C22.8557971,15.4 21.7562846,13.6393416 22.6326743,12.2658436 C23.0927214,11.5583539 23.8241963,11.7749794 24.5648721,11.7865021 C25.6271394,11.8079737 26.6890881,11.7300499 27.7368969,11.5537449 Z" id="Shape" fill="#4A4347"></path>
                            <path d="M36.6917137,36.4818107 C36.6917137,36.4818107 38.3179802,44.9302058 37.5796046,48.1911111 C37.1284691,50.088093 37.1952095,52.0717515 37.7728244,53.9339918" id="Shape" fill="#000000" opacity="0.1"></path>
                            <path d="M10.4023221,40.0376955 C10.4023221,40.0376955 9.69384961,45.6699588 10.8738704,46.8544856" id="Shape" fill="#000000" opacity="0.1"></path>
                            <path d="M51.707651,109.447737 C51.8982088,109.447737 52.0526863,109.292971 52.0526863,109.102058 C52.0526863,108.911144 51.8982088,108.756379 51.707651,108.756379 C51.5170933,108.756379 51.3626157,108.911144 51.3626157,109.102058 C51.3626157,109.292971 51.5170933,109.447737 51.707651,109.447737 Z" id="Shape" fill="#000000"></path>
                            <g id="Group" opacity="0.5" transform="translate(32.125746, 20.423868)" fill="url(#linearGradient-2)">
                                <path d="M125.822882,48.7522634 L125.822882,48.5609877 L63.0632565,0.212016461 C62.9819425,0.151707211 62.8708425,0.151707211 62.7895285,0.212016461 L0.027602826,48.5609877 L0.027602826,123.504198 L0.147215072,123.504198 L0.147215072,123.624033 L125.944794,123.624033 L125.944794,48.680823 L125.822882,48.7522634 Z" id="Shape"></path>
                            </g>
                            <polygon id="Shape" fill="#FFFFFF" points="155.781806 141.83786 34.3293718 141.83786 34.3293718 69.4757202 95.055589 22.6938272 155.781806 69.4757202"></polygon>
                            <polygon id="Shape" fill="#E0E0E0" points="151.411359 137.549136 38.6998193 137.549136 38.6998193 70.3952263 95.055589 26.9802469 151.411359 70.3952263"></polygon>
                            <rect id="Rectangle-path" fill="#6C63FF" transform="translate(91.259643, 78.809589) rotate(-14.690000) translate(-91.259643, -78.809589) " x="55.7210047" y="33.5256388" width="71.077277" height="90.5679012"></rect>
                            <rect id="Rectangle-path" fill="#F5F5F5" x="59.8619859" y="39.2864198" width="71.077277" height="90.5679012"></rect>
                            <circle id="Oval-3" stroke="#6C63FF" stroke-width="2" cx="93" cy="58" r="9"></circle>
                            <polygon id="Triangle" fill="#6C63FF" points="97 58 91 62 91 54"></polygon>
                            <polygon id="Shape" fill="#000000" opacity="0.05" points="34.9044307 69.5909465 95.6306479 105.772016 34.9044307 141.953086"></polygon>
                            <polygon id="Shape" fill="#FFFFFF" points="34.4443836 69.5909465 95.1706008 105.772016 34.4443836 141.953086"></polygon>
                            <polygon id="Shape" fill="#000000" opacity="0.05" points="155.436771 69.5909465 94.7105537 105.772016 155.436771 141.953086"></polygon>
                            <polygon id="Shape" fill="#FFFFFF" points="155.896818 69.5909465 95.1706008 105.772016 155.896818 141.953086"></polygon>
                            <polygon id="Shape" fill="#000000" opacity="0.05" points="34.4443836 140.800823 95.1706008 93.327572 155.896818 140.800823"></polygon>
                            <polygon id="Shape" fill="#FFFFFF" points="34.4443836 141.953086 95.1706008 94.4798354 155.896818 141.953086"></polygon>
                            <rect id="Rectangle-path" fill="#6C63FF" opacity="0.3" x="64.0024098" y="76.6197531" width="35.1936032" height="2.30452675"></rect>
                            <rect id="Rectangle-path" fill="#6C63FF" opacity="0.3" x="64.0024098" y="82.6115226" width="48.074922" height="2.30452675"></rect>
                        </g>
                    </g>
                </g>
            </g>
        </g>
    </g>
</svg>