<?xml version="1.0" encoding="UTF-8"?>
<svg width="119px" height="43px" viewBox="0 0 119 43" version="1.1" xmlns="http://www.w3.org/2000/svg" xmlns:xlink="http://www.w3.org/1999/xlink">
    <!-- Generator: Sketch 51.2 (57519) - http://www.bohemiancoding.com/sketch -->
    <title>Group</title>
    <desc>Created with Sketch.</desc>
    <defs></defs>
    <g id="Page-1" stroke="none" stroke-width="1" fill="none" fill-rule="evenodd">
        <g id="Artboard-2" transform="translate(-444.000000, -131.000000)" fill="#FFFFFF">
            <g id="Group" transform="translate(438.000000, 125.000000)">
                <g id="Group-23-Copy-3" fill-rule="nonzero">
                    <path d="M47.2733357,39.825507 L42.4263712,44.1588403 L42.4263712,30.2733423 L27.2634074,30.2733423 L27.2634074,44.700507 L22.4164428,39.825507 L22.4164428,14.9310571 L27.2634074,14.9310571 L27.2634074,26.0225285 L42.4263712,26.0225285 L42.4263712,14.9310571 L47.2733357,14.9310571 L47.2733357,39.825507 Z M54.9164428,14.9310571 L63.0414428,24.6810571 L34.6039428,53.9310571 L6.16644284,24.6810571 L14.2914428,14.9310571 L54.9164428,14.9310571 Z M34.6039428,48.491688 L57.9430459,24.4857535 L53.1405212,18.7227238 L16.0673645,18.7227238 L11.2648398,24.4857535 L34.6039428,48.491688 Z" id="Combined-Shape-Copy-5" transform="translate(34.603943, 34.431057) rotate(-45.000000) translate(-34.603943, -34.431057) "></path>
                </g>
                <path d="M55.932,24 L55.932,7.9 L59.474,7.9 L59.474,14.271 L66.006,14.271 L66.006,7.9 L69.548,7.9 L69.548,24 L66.006,24 L66.006,17.537 L59.474,17.537 L59.474,24 L55.932,24 Z M76.3120001,24 L76.3120001,7.9 L88.4560001,7.9 L88.4560001,11.051 L79.8310001,11.051 L79.8310001,14.317 L87.4210001,14.317 L87.4210001,17.468 L79.8310001,17.468 L79.8310001,20.849 L88.5710001,20.849 L88.5710001,24 L76.3120001,24 Z M94.6220002,24 L94.6220002,7.9 L98.1640002,7.9 L98.1640002,20.78 L106.191,20.78 L106.191,24 L94.6220002,24 Z M111.759,24 L111.759,7.9 L118.337,7.9 C120.238343,7.9 121.740995,8.40982824 122.845,9.4295 C123.949006,10.4491718 124.501,11.7946583 124.501,13.466 L124.501,13.512 C124.501,15.306009 123.887673,16.6974951 122.661,17.6865 C121.434327,18.6755049 119.87801,19.17 117.992,19.17 L115.301,19.17 L115.301,24 L111.759,24 Z M115.301,16.019 L118.107,16.019 C118.965671,16.019 119.647998,15.7890023 120.154,15.329 C120.660003,14.8689977 120.913,14.2863369 120.913,13.581 L120.913,13.535 C120.913,12.7529961 120.660003,12.1511688 120.154,11.7295 C119.647998,11.3078312 118.942671,11.097 118.038,11.097 L115.301,11.097 L115.301,16.019 Z" id="HELP-Copy"></path>
                <path d="M55.932,48 L55.932,31.9 L59.474,31.9 L59.474,38.271 L66.006,38.271 L66.006,31.9 L69.548,31.9 L69.548,48 L66.006,48 L66.006,41.537 L59.474,41.537 L59.474,48 L55.932,48 Z M74.312,48 L74.312,31.9 L86.456,31.9 L86.456,35.051 L77.831,35.051 L77.831,38.317 L85.421,38.317 L85.421,41.468 L77.831,41.468 L77.831,44.849 L86.571,44.849 L86.571,48 L74.312,48 Z M90.622,48 L90.622,31.9 L97.982,31.9 C100.021343,31.9 101.585328,32.4443279 102.674,33.533 C103.594005,34.4530046 104.054,35.679659 104.054,37.213 L104.054,37.259 C104.054,39.727679 102.904011,41.391329 100.604,42.25 L104.537,48 L100.397,48 L96.947,42.848 L94.164,42.848 L94.164,48 L90.622,48 Z M94.164,39.72 L97.752,39.72 C98.5953375,39.72 99.2584975,39.5130021 99.7415,39.099 C100.224502,38.6849979 100.466,38.1330034 100.466,37.443 L100.466,37.397 C100.466,36.6456629 100.220669,36.074502 99.73,35.6835 C99.2393308,35.292498 98.5570043,35.097 97.683,35.097 L94.164,35.097 L94.164,39.72 Z M122.089,45.861 C120.463658,47.471008 118.424346,48.276 115.971,48.276 C113.517654,48.276 111.482175,47.4748413 109.8645,45.8725 C108.246825,44.2701587 107.438,42.3113449 107.438,39.996 L107.438,39.95 C107.438,37.6346551 108.254492,35.6681748 109.8875,34.0505 C111.520508,32.4328252 113.563654,31.624 116.017,31.624 C118.470346,31.624 120.505825,32.4251587 122.1235,34.0275 C123.741175,35.6298413 124.55,37.5886551 124.55,39.904 L124.55,39.95 C124.55,42.2653449 123.729675,44.2356585 122.089,45.861 Z M112.521,43.538 C113.441005,44.5193382 114.606326,45.01 116.017,45.01 C117.427674,45.01 118.585329,44.5270048 119.49,43.561 C120.394671,42.5949952 120.847,41.4066737 120.847,39.996 L120.847,39.95 C120.847,38.5393263 120.387005,37.3433382 119.467,36.362 C118.546995,35.3806618 117.381674,34.89 115.971,34.89 C114.560326,34.89 113.402671,35.3729952 112.498,36.339 C111.593329,37.3050048 111.141,38.4933263 111.141,39.904 L111.141,39.95 C111.141,41.3606737 111.600995,42.5566618 112.521,43.538 Z" id="HERO-Copy"></path>
            </g>
        </g>
    </g>
</svg>