<?xml version="1.0" encoding="UTF-8"?>
<svg width="74px" height="36px" viewBox="0 0 74 36" version="1.1" xmlns="http://www.w3.org/2000/svg" xmlns:xlink="http://www.w3.org/1999/xlink">
    <!-- Generator: Sketch 51.2 (57519) - http://www.bohemiancoding.com/sketch -->
    <title>Group 23 Copy</title>
    <desc>Created with Sketch.</desc>
    <defs></defs>
    <g id="Page-1" stroke="none" stroke-width="1" fill="none" fill-rule="evenodd">
        <g id="Artboard-2" transform="translate(-128.000000, -39.000000)" fill="#FFFFFF" fill-rule="nonzero">
            <g id="Group-23-Copy" transform="translate(123.000000, 35.000000)">
                <path d="M39.0518861,32.8993319 L35.0478719,36.479042 L35.0478719,25.0084132 L22.5219452,25.0084132 L22.5219452,36.9265058 L18.517931,32.8993319 L18.517931,12.3343515 L22.5219452,12.3343515 L22.5219452,21.4968713 L35.0478719,21.4968713 L35.0478719,12.3343515 L39.0518861,12.3343515 L39.0518861,32.8993319 Z M45.3657571,12.3343515 L52.0777137,20.3886994 L28.5858658,44.5517428 L5.094018,20.3886994 L11.8059745,12.3343515 L45.3657571,12.3343515 Z M28.5858658,40.058351 L47.8659944,20.2273615 L43.8986914,15.4665979 L13.2730402,15.4665979 L9.30573721,20.2273615 L28.5858658,40.058351 Z" id="Combined-Shape-Copy-5" transform="translate(28.585866, 28.443047) rotate(-45.000000) translate(-28.585866, -28.443047) "></path>
                <path d="M65.8175806,32.7829217 L61.8135664,36.3626319 L61.8135664,24.892003 L49.2876397,24.892003 L49.2876397,36.8100956 L45.2836256,32.7829217 L45.2836256,12.2179414 L49.2876397,12.2179414 L49.2876397,21.3804612 L61.8135664,21.3804612 L61.8135664,12.2179414 L65.8175806,12.2179414 L65.8175806,32.7829217 Z M72.1314517,12.2179414 L78.8434082,20.2722892 L55.3515604,44.4353327 L31.8597125,20.2722892 L38.5716691,12.2179414 L72.1314517,12.2179414 Z M55.3515604,39.9419408 L74.631689,20.1109514 L70.6643859,15.3501878 L40.0387348,15.3501878 L36.0714318,20.1109514 L55.3515604,39.9419408 Z" id="Combined-Shape-Copy-6" transform="translate(55.696189, 27.892079) rotate(-315.000000) translate(-55.696189, -27.892079) "></path>
            </g>
        </g>
    </g>
</svg>