<?xml version="1.0" encoding="UTF-8"?>
<svg width="105px" height="72px" viewBox="0 0 105 72" version="1.1" xmlns="http://www.w3.org/2000/svg" xmlns:xlink="http://www.w3.org/1999/xlink">
    <!-- Generator: Sketch 51.2 (57519) - http://www.bohemiancoding.com/sketch -->
    <title>Combined Shape Copy 5</title>
    <desc>Created with Sketch.</desc>
    <defs></defs>
    <g id="Page-1" stroke="none" stroke-width="1" fill="none" fill-rule="evenodd">
        <g id="Artboard-2" transform="translate(-216.000000, -23.000000)" fill="#FFFFFF" fill-rule="nonzero">
            <g id="Group-6-Copy" transform="translate(216.000000, 23.000000)">
                <path d="M75.8896484,45.9589844 L66.9414062,53.9589844 L66.9414062,28.3242188 L38.9482422,28.3242188 L38.9482422,54.9589844 L30,45.9589844 L30,0 L38.9482422,0 L38.9482422,20.4765625 L66.9414062,20.4765625 L66.9414062,0 L75.8896484,0 L75.8896484,45.9589844 Z M90.5996927,0.719631201 L103.847178,16.6166139 C104.502483,17.40298 104.458268,18.5572096 103.744726,19.2911395 L53.9339898,70.525039 C53.1640183,71.3170097 51.8978139,71.3348436 51.1058432,70.5648721 C51.0923792,70.5517821 51.0791002,70.538503 51.0660102,70.525039 L1.25527448,19.2911395 C0.541731593,18.5572096 0.497516661,17.40298 1.15282176,16.6166139 L14.4003073,0.719631201 C14.780295,0.26364602 15.3431902,-3.35054065e-16 15.9367499,-4.4408921e-16 L89.0632501,9.32587341e-15 C89.6568098,1.34343335e-14 90.219705,0.26364602 90.5996927,0.719631201 Z M52.5,61.9580878 L95.5875749,17.6394394 L86.7213754,7 L18.2786246,7 L9.41242513,17.6394394 L52.5,61.9580878 Z" id="Combined-Shape-Copy-5"></path>
            </g>
        </g>
    </g>
</svg>